name GIL06_free2EmgEnv.mot
datacolumns 51
datarows 11
range 0.63796294 0.64722216
endheader
                time	   rect_fem_l_emgRec	   rect_fem_l_emgEnv	   rect_fem_l_emgAve	   rect_fem_l_emgSDp	   rect_fem_l_emgSDm	   rect_fem_r_emgRec	   rect_fem_r_emgEnv	   rect_fem_r_emgAve	   rect_fem_r_emgSDp	   rect_fem_r_emgSDm	   med_hams_l_emgRec	   med_hams_l_emgEnv	   med_hams_l_emgAve	   med_hams_l_emgSDp	   med_hams_l_emgSDm	   med_hams_r_emgRec	   med_hams_r_emgEnv	   med_hams_r_emgAve	   med_hams_r_emgSDp	   med_hams_r_emgSDm	   lat_hams_l_emgRec	   lat_hams_l_emgEnv	   lat_hams_l_emgAve	   lat_hams_l_emgSDp	   lat_hams_l_emgSDm	   lat_hams_r_emgRec	   lat_hams_r_emgEnv	   lat_hams_r_emgAve	   lat_hams_r_emgSDp	   lat_hams_r_emgSDm	    tib_ant_l_emgRec	    tib_ant_l_emgEnv	    tib_ant_l_emgAve	    tib_ant_l_emgSDp	    tib_ant_l_emgSDm	    tib_ant_r_emgRec	    tib_ant_r_emgEnv	    tib_ant_r_emgAve	    tib_ant_r_emgSDp	    tib_ant_r_emgSDm	    gas_sol_l_emgRec	    gas_sol_l_emgEnv	    gas_sol_l_emgAve	    gas_sol_l_emgSDp	    gas_sol_l_emgSDm	    gas_sol_r_emgRec	    gas_sol_r_emgEnv	    gas_sol_r_emgAve	    gas_sol_r_emgSDp	    gas_sol_r_emgSDm	
          0.63796294	          0.16640316	          0.46132599	          0.18060100	          0.41269541	         -0.05149341	          0.27856210	          0.51567693	          0.45229983	          0.67139895	          0.23320071	          0.01904189	          0.04912451	          0.04798929	          0.07521383	          0.02076474	          0.35002327	          0.36972772	          0.44957933	          0.67091750	          0.22824116	          0.07166084	          0.07304366	          0.04811774	          0.11513208	         -0.01889659	          0.05351787	          0.11483989	          0.10910382	          0.14990626	          0.06830139	          0.03489660	          0.08167083	          0.05227909	          0.06044285	          0.04411532	          0.02391692	          0.17508989	          0.19000725	          0.25246219	          0.12755232	          0.02006624	          0.03539015	          0.00647049	          0.02970367	         -0.01676270	          0.00910250	          0.06031599	          0.03206611	          0.03500269	          0.02912952	
          0.63888884	          0.17681094	          0.47911853	          0.18174854	          0.41634405	         -0.05284697	          0.02501084	          0.50544802	          0.44968066	          0.66760018	          0.23176113	          0.00887270	          0.04685507	          0.04691020	          0.07314388	          0.02067652	          0.31442961	          0.36974185	          0.44900054	          0.67000863	          0.22799245	          0.06640337	          0.07163856	          0.04624217	          0.11088101	         -0.01839668	          0.03923156	          0.11391736	          0.10884191	          0.14975109	          0.06793274	          0.01379051	          0.08421714	          0.05219117	          0.06113549	          0.04324685	          0.00008688	          0.17470361	          0.18597409	          0.24818477	          0.12376341	          0.00851784	          0.03538612	          0.00655288	          0.02984162	         -0.01673586	          0.01514889	          0.06022303	          0.03281371	          0.03621195	          0.02941547	
          0.63981473	          0.23981837	          0.49695002	          0.18290515	          0.41999613	         -0.05418582	          0.22146711	          0.49535654	          0.44703555	          0.66376853	          0.23030257	          0.00594180	          0.04467797	          0.04587026	          0.07114227	          0.02059825	          0.24986718	          0.37004640	          0.44839501	          0.66905704	          0.22773299	          0.06372857	          0.07035489	          0.04441894	          0.10673301	         -0.01789512	          0.03365977	          0.11303091	          0.10858589	          0.14960960	          0.06756219	          0.00539488	          0.08679882	          0.05211900	          0.06187047	          0.04236753	          0.03595139	          0.17445963	          0.18201064	          0.24398104	          0.12004023	          0.00068491	          0.03539543	          0.00665551	          0.02999011	         -0.01667909	          0.04993923	          0.06011554	          0.03358708	          0.03746132	          0.02971283	
          0.64074069	          0.26090323	          0.51478325	          0.18406996	          0.42364964	         -0.05550972	          0.25353351	          0.48540539	          0.44436455	          0.65990406	          0.22882503	          0.00247726	          0.04259084	          0.04486952	          0.06920907	          0.02052998	          0.19320097	          0.37063214	          0.44776279	          0.66806281	          0.22746277	          0.06410586	          0.06918320	          0.04264801	          0.10268796	         -0.01739195	          0.02918957	          0.11217730	          0.10833572	          0.14948171	          0.06718973	          0.01570624	          0.08941333	          0.05206372	          0.06264855	          0.04147888	          0.02231331	          0.17435333	          0.17811719	          0.23985129	          0.11638308	          0.02034787	          0.03541676	          0.00677791	          0.03014872	         -0.01659291	          0.06513440	          0.05999374	          0.03438618	          0.03875074	          0.03002162	
          0.64166659	          0.19047066	          0.53258066	          0.18524179	          0.42730150	         -0.05681792	          0.18134581	          0.47559716	          0.44166845	          0.65600787	          0.22732903	         -0.00002846	          0.04059130	          0.04390825	          0.06734471	          0.02047179	          0.17328645	          0.37148948	          0.44710395	          0.66702616	          0.22718173	          0.05847609	          0.06811430	          0.04092959	          0.09874653	         -0.01688734	          0.03865365	          0.11135322	          0.10809141	          0.14936735	          0.06681547	          0.03213348	          0.09205808	          0.05202656	          0.06347043	          0.04058270	          0.02385699	          0.17437976	          0.17429483	          0.23579666	          0.11279300	          0.03262790	          0.03544884	          0.00691961	          0.03031706	         -0.01647785	          0.00451882	          0.05985788	          0.03521081	          0.04007990	          0.03034173	
          0.64259255	          0.13300225	          0.55030441	          0.18641965	          0.43094972	         -0.05811042	          0.19244800	          0.46593406	          0.43894720	          0.65207985	          0.22581455	          0.00160196	          0.03867698	          0.04298642	          0.06554909	          0.02042374	          0.12164309	          0.37260843	          0.44641843	          0.66594708	          0.22688979	          0.05039126	          0.06713923	          0.03926343	          0.09490819	         -0.01638132	          0.03276834	          0.11055537	          0.10785294	          0.14926644	          0.06643943	          0.04576312	          0.09473046	          0.05200873	          0.06433692	          0.03968055	          0.04209512	          0.17453360	          0.17054358	          0.23181713	          0.10927004	          0.03309229	          0.03549039	          0.00708017	          0.03049476	         -0.01633442	          0.04811056	          0.05970827	          0.03606098	          0.04144877	          0.03067319	
          0.64351845	          0.05638690	          0.56791651	          0.18760239	          0.43459137	         -0.05938660	          0.29647787	          0.45641794	          0.43620151	          0.64812106	          0.22428197	          0.00006257	          0.03684552	          0.04210423	          0.06382256	          0.02038589	          0.02661703	          0.37397870	          0.44570646	          0.66482589	          0.22658703	          0.04361621	          0.06624934	          0.03764967	          0.09117334	         -0.01587401	          0.00066320	          0.10978045	          0.10762033	          0.14917891	          0.06606175	          0.03348839	          0.09742781	          0.05201149	          0.06524868	          0.03877431	          0.03460291	          0.17480922	          0.16686441	          0.22791372	          0.10581510	          0.02502786	          0.03554022	          0.00725912	          0.03068145	         -0.01616320	          0.04132341	          0.05954526	          0.03693641	          0.04285697	          0.03101585	
          0.64444441	          0.02526584	          0.58537898	          0.18878902	          0.43822426	         -0.06064621	          0.29930644	          0.44705038	          0.43343148	          0.64413145	          0.22273150	          0.00089978	          0.03509459	          0.04126165	          0.06216499	          0.02035830	          0.00708585	          0.37558970	          0.44496807	          0.66366269	          0.22627346	          0.03603682	          0.06543624	          0.03608796	          0.08754140	         -0.01536547	          0.01600691	          0.10902518	          0.10739351	          0.14910464	          0.06568238	          0.00827685	          0.10014743	          0.05203613	          0.06620658	          0.03786569	          0.03409549	          0.17520069	          0.16325735	          0.22408642	          0.10242827	          0.01336153	          0.03559713	          0.00745605	          0.03087684	         -0.01596473	          0.03680790	          0.05936925	          0.03783713	          0.04430449	          0.03136976	
          0.64537030	          0.09995102	          0.60265388	          0.18997830	          0.44184524	         -0.06188864	          0.17078652	          0.43783260	          0.43063766	          0.64011194	          0.22116338	          0.00256392	          0.03342186	          0.04045883	          0.06057664	          0.02034102	          0.01964846	          0.37743058	          0.44420335	          0.66245770	          0.22594899	          0.03199965	          0.06469185	          0.03457838	          0.08401262	         -0.01485586	          0.01234973	          0.10828630	          0.10717250	          0.14904354	          0.06530145	          0.00643184	          0.10288663	          0.05208394	          0.06721125	          0.03695663	          0.01642885	          0.17570177	          0.15972324	          0.22033614	          0.09911033	          0.01757964	          0.03566000	          0.00767048	          0.03108056	         -0.01573959	          0.03597705	          0.05918068	          0.03876285	          0.04579092	          0.03173478	
          0.64629626	          0.05597610	          0.61970351	          0.19116916	          0.44545217	         -0.06311385	          0.11277173	          0.42876557	          0.42782018	          0.63606258	          0.21957777	          0.00249507	          0.03182508	          0.03969574	          0.05905737	          0.02033411	          0.00100812	          0.37949023	          0.44341221	          0.66121088	          0.22561355	          0.02728818	          0.06400840	          0.03312051	          0.08058620	         -0.01434519	          0.02090389	          0.10756059	          0.10695725	          0.14899550	          0.06491900	          0.01760870	          0.10564268	          0.05215627	          0.06826360	          0.03604894	          0.03108245	          0.17630596	          0.15626206	          0.21666279	          0.09586132	          0.02050646	          0.03572771	          0.00790201	          0.03129237	         -0.01548836	          0.01079128	          0.05898004	          0.03971354	          0.04731617	          0.03211091	
          0.64722216	          0.12491349	          0.63649049	          0.19236027	          0.44904180	         -0.06432126	          0.14031054	          0.41984994	          0.42497978	          0.63198443	          0.21797512	          0.00016578	          0.03030200	          0.03897249	          0.05760736	          0.02033761	          0.01284385	          0.38175733	          0.44259509	          0.65992282	          0.22526737	          0.01464057	          0.06337845	          0.03171430	          0.07726225	         -0.01383365	          0.02685879	          0.10684490	          0.10674773	          0.14896037	          0.06453509	          0.00274328	          0.10841286	          0.05225446	          0.06936424	          0.03514469	          0.05552173	          0.17700651	          0.15287463	          0.21306726	          0.09268201	          0.00808734	          0.03579924	          0.00815015	          0.03151197	         -0.01521166	          0.01227953	          0.05876785	          0.04068892	          0.04887982	          0.03249802	
